<svg width="23" height="23" viewBox="0 0 23 23" fill="none" xmlns="http://www.w3.org/2000/svg">
<path fill-rule="evenodd" clip-rule="evenodd" d="M0.000854492 1.25C0.000854492 1.05109 0.0798721 0.860322 0.220524 0.71967C0.361177 0.579018 0.551942 0.5 0.750854 0.5H3.00085C3.16815 0.500046 3.33063 0.556026 3.46245 0.659037C3.59427 0.762048 3.68787 0.906176 3.72835 1.0685L4.33585 3.5H21.7509C21.8618 3.50007 21.9713 3.52474 22.0715 3.57223C22.1718 3.61972 22.2602 3.68885 22.3305 3.77465C22.4008 3.86044 22.4512 3.96076 22.4781 4.06838C22.5049 4.176 22.5076 4.28823 22.4859 4.397L20.9859 11.897C20.953 12.0605 20.8666 12.2085 20.7403 12.3174C20.614 12.4264 20.455 12.4901 20.2884 12.4985L6.19285 13.2065L6.62335 15.5H19.5009C19.6998 15.5 19.8905 15.579 20.0312 15.7197C20.1718 15.8603 20.2509 16.0511 20.2509 16.25C20.2509 16.4489 20.1718 16.6397 20.0312 16.7803C19.8905 16.921 19.6998 17 19.5009 17H6.00085C5.826 16.9998 5.6567 16.9386 5.52222 16.8268C5.38774 16.7151 5.29653 16.5599 5.26435 16.388L3.01585 4.4105L2.41585 2H0.750854C0.551942 2 0.361177 1.92098 0.220524 1.78033C0.0798721 1.63968 0.000854492 1.44891 0.000854492 1.25ZM4.65385 5L5.91385 11.7185L19.6299 11.03L20.8359 5H4.65385ZM7.50085 17C6.7052 17 5.94214 17.3161 5.37953 17.8787C4.81693 18.4413 4.50085 19.2044 4.50085 20C4.50085 20.7956 4.81693 21.5587 5.37953 22.1213C5.94214 22.6839 6.7052 23 7.50085 23C8.2965 23 9.05957 22.6839 9.62218 22.1213C10.1848 21.5587 10.5009 20.7956 10.5009 20C10.5009 19.2044 10.1848 18.4413 9.62218 17.8787C9.05957 17.3161 8.2965 17 7.50085 17ZM18.0009 17C17.2052 17 16.4421 17.3161 15.8795 17.8787C15.3169 18.4413 15.0009 19.2044 15.0009 20C15.0009 20.7956 15.3169 21.5587 15.8795 22.1213C16.4421 22.6839 17.2052 23 18.0009 23C18.7965 23 19.5596 22.6839 20.1222 22.1213C20.6848 21.5587 21.0009 20.7956 21.0009 20C21.0009 19.2044 20.6848 18.4413 20.1222 17.8787C19.5596 17.3161 18.7965 17 18.0009 17ZM7.50085 18.5C7.10303 18.5 6.7215 18.658 6.44019 18.9393C6.15889 19.2206 6.00085 19.6022 6.00085 20C6.00085 20.3978 6.15889 20.7794 6.44019 21.0607C6.7215 21.342 7.10303 21.5 7.50085 21.5C7.89868 21.5 8.28021 21.342 8.56151 21.0607C8.84282 20.7794 9.00085 20.3978 9.00085 20C9.00085 19.6022 8.84282 19.2206 8.56151 18.9393C8.28021 18.658 7.89868 18.5 7.50085 18.5ZM18.0009 18.5C17.603 18.5 17.2215 18.658 16.9402 18.9393C16.6589 19.2206 16.5009 19.6022 16.5009 20C16.5009 20.3978 16.6589 20.7794 16.9402 21.0607C17.2215 21.342 17.603 21.5 18.0009 21.5C18.3987 21.5 18.7802 21.342 19.0615 21.0607C19.3428 20.7794 19.5009 20.3978 19.5009 20C19.5009 19.6022 19.3428 19.2206 19.0615 18.9393C18.7802 18.658 18.3987 18.5 18.0009 18.5Z" fill="#343A40"/>
</svg>
